#!OML:ASF F:\twosubjects\two\Thursday\Session 1\Rory.ASF
:FULLY-SPECIFIED
:DEGREES
377
root 12.4249 17.7489 -13.6529 1.24847 -23.6985 3.14067
lowerback -0.863026 -0.515696 -4.00681
upperback 1.39284 -0.625918 0.527408
thorax 1.96511 -0.376832 2.77274
lowerneck -12.3046 0.366461 -1.28505
upperneck 24.7602 1.85207 -4.46953
head 9.92824 0.181393 -1.13126
rclavicle -7.06679e-014 1.82882e-014
rhumerus -34.8546 -15.3099 -74.3247
rradius 32.2282
rwrist 16.1624
rhand -22.865 21.7436
rfingers 7.12502
rthumb 3.57347 -8.20616
lclavicle -7.06679e-014 1.82882e-014
lhumerus -36.1653 24.1136 77.6674
lradius 23.9872
lwrist -28.9519
lhand -12.7879 28.4072
lfingers 7.12502
lthumb 13.2976 57.9629
rfemur -9.27393 4.50645 19.8697
rtibia 25.5906
rfoot -17.1652 -11.3121
rtoes -6.56364
lfemur -5.14356 -2.50838 -13.1096
ltibia 18.9015
lfoot -11.4163 10.9135
ltoes 14.9847
378
root 12.4395 17.7448 -13.6551 1.27179 -23.5811 3.16788
lowerback -0.740069 -0.595004 -4.28516
upperback 1.25369 -0.734908 0.523906
thorax 1.76539 -0.428542 2.92463
lowerneck -12.6428 0.29122 -1.38402
upperneck 25.158 1.76148 -4.3376
head 10.1334 0.131391 -1.08435
rclavicle 7.15625e-015 -7.15625e-015
rhumerus -34.7644 -15.1228 -74.4311
rradius 32.0485
rwrist 15.8339
rhand -22.9028 23.0673
rfingers 7.12502
rthumb 3.537 -6.88311
lclavicle 7.15625e-015 -7.15625e-015
lhumerus -36.6135 24.8616 76.9495
lradius 23.3813
lwrist -29.6909
lhand -13.3143 28.3607
lfingers 7.12502
lthumb 12.7902 57.9489
rfemur -9.36003 4.33624 19.8006
rtibia 25.624
rfoot -17.0379 -11.2017
rtoes -6.45517
lfemur -4.96424 -2.2118 -13.2432
ltibia 18.4736
lfoot -11.5696 11.2149
ltoes 15.2815
379
root 12.456 17.7478 -13.639 1.36431 -23.572 2.93502
lowerback -0.835954 -0.502114 -4.11818
upperback 1.19633 -0.609341 0.461194
thorax 1.74687 -0.361703 2.76871
lowerneck -12.8567 0.0791883 -1.25848
upperneck 25.4106 1.42394 -4.24225
head 10.2591 -0.00872895 -1.11751
rclavicle -1.89839e-014 3.77691e-015
rhumerus -34.9027 -15.4648 -74.4265
rradius 31.8845
rwrist 15.4731
rhand -23.4601 24.909
rfingers 7.12502
rthumb 2.99873 -5.04964
lclavicle -1.89839e-014 3.77691e-015
lhumerus -37.2065 25.9729 75.9147
lradius 23.2181
lwrist -31.0731
lhand -12.6691 28.5689
lfingers 7.12502
lthumb 13.4122 58.1172
rfemur -9.28746 4.04257 19.9371
rtibia 25.5512
rfoot -16.9469 -10.8981
rtoes -6.88253
lfemur -4.67716 -2.11221 -13.1461
ltibia 18.095
lfoot -11.5259 11.5562
ltoes 15.0883
380
root 12.4806 17.7569 -13.6073 1.37938 -23.5734 2.89796
lowerback -1.17873 -0.41192 -3.90722
upperback 1.25713 -0.473974 0.300636
thorax 1.98776 -0.295816 2.48578
lowerneck -13.01 -0.10862 -1.06959
upperneck 25.4663 1.10737 -4.19268
head 10.3023 -0.132384 -1.17295
rclavicle -1.2921e-015 -5.1684e-015
rhumerus -34.9545 -15.8598 -74.4602
rradius 31.9215
rwrist 15.4457
rhand -23.6094 25.3493
rfingers 7.12502
rthumb 2.85454 -4.61135
lclavicle -1.2921e-015 -5.1684e-015
lhumerus -37.6542 26.8609 75.0866
lradius 23.1415
lwrist -32.2327
lhand -11.3672 28.8702
lfingers 7.12502
lthumb 14.6667 58.3315
rfemur -9.11681 4.05605 19.826
rtibia 25.4047
rfoot -16.9412 -10.8706
rtoes -7.64373
lfemur -4.29933 -2.53551 -13.3176
ltibia 17.7064
lfoot -11.8514 12.0864
ltoes 15.3184
381
root 12.4957 17.7773 -13.5913 1.43223 -23.4933 3.12141
lowerback -1.43778 -0.495431 -4.22605
upperback 1.21103 -0.566244 0.244441
thorax 2.09599 -0.347523 2.60235
lowerneck -13.156 -0.150359 -1.03191
upperneck 25.5272 1.07336 -4.29812
head 10.3533 -0.159782 -1.22275
rclavicle 6.66177e-014 -1.17283e-014
rhumerus -34.7698 -15.8205 -74.5895
rradius 31.9166
rwrist 15.8178
rhand -23.4855 24.4684
rfingers 7.12502
rthumb 2.97426 -5.49061
lclavicle 6.66177e-014 -1.17283e-014
lhumerus -38.0858 27.8299 74.349
lradius 22.6917
lwrist -32.9576
lhand -11.3212 28.3293
lfingers 7.12502
lthumb 14.711 57.7873
rfemur -9.14679 4.1355 19.5234
rtibia 25.2682
rfoot -16.8382 -11.0382
rtoes -8.26794
lfemur -4.07462 -2.71351 -13.644
ltibia 17.2629
lfoot -12.3969 12.1371
ltoes 17.3366
382
root 12.5055 17.7892 -13.5872 1.5114 -23.3701 3.11955
lowerback -1.46742 -0.614847 -4.54621
upperback 1.1033 -0.720679 0.351602
thorax 2.0198 -0.426508 2.88774
lowerneck -13.1684 -0.211615 -1.36686
upperneck 25.6077 1.0573 -4.24902
head 10.3851 -0.196423 -1.15163
rclavicle 1.05604e-014 9.74045e-015
rhumerus -34.706 -15.4431 -74.7498
rradius 32.0941
rwrist 16.2097
rhand -23.6052 23.0626
rfingers 7.12502
rthumb 2.8586 -6.89797
lclavicle 1.05604e-014 9.74045e-015
lhumerus -38.661 29.0008 73.5717
lradius 22.1436
lwrist -33.6215
lhand -11.7874 27.9742
lfingers 7.12502
lthumb 14.2619 57.4644
rfemur -9.2018 4.13483 19.5003
rtibia 25.2135
rfoot -16.7741 -11.1868
rtoes -8.56285
lfemur -3.86468 -2.62938 -13.6364
ltibia 16.7995
lfoot -13.1097 11.753
ltoes 20.7561
383
root 12.5241 17.7792 -13.5709 1.3712 -23.3802 2.94255
lowerback -1.41751 -0.512618 -4.41119
upperback 1.15559 -0.587785 0.289124
thorax 2.03199 -0.35899 2.75209
lowerneck -13.1613 -0.45515 -1.76576
upperneck 25.6437 0.668848 -3.71514
head 10.387 -0.350578 -0.943206
rclavicle 8.96767e-014 6.75868e-015
rhumerus -34.7996 -15.7493 -74.8691
rradius 32.1955
rwrist 16.3866
rhand -23.6848 23.2704
rfingers 7.12502
rthumb 2.78172 -6.69122
lclavicle 8.96767e-014 6.75868e-015
lhumerus -38.8563 29.3547 73.0814
lradius 21.5812
lwrist -34.0568
lhand -11.7533 28.3051
lfingers 7.12502
lthumb 14.2947 57.793
rfemur -8.98604 4.06822 19.6021
rtibia 25.2485
rfoot -16.8211 -11.1209
rtoes -8.71372
lfemur -3.4024 -2.66712 -13.5521
ltibia 16.341
lfoot -13.9005 11.745
ltoes 22.3013
384
root 12.548 17.7688 -13.5492 1.17777 -23.356 2.98115
lowerback -1.46704 -0.320136 -4.32565
upperback 1.28767 -0.323001 0.0253276
thorax 2.17212 -0.228806 2.44027
lowerneck -13.4632 -0.742924 -1.67132
upperneck 25.7318 0.142009 -3.29818
head 10.4687 -0.536082 -0.880614
rclavicle -4.27139e-014 -3.97569e-016
rhumerus -34.8067 -16.3962 -74.9694
rradius 32.0595
rwrist 16.1254
rhand -23.7557 24.1707
rfingers 7.12502
rthumb 2.7133 -5.79181
lclavicle -4.27139e-014 -3.97569e-016
lhumerus -38.5292 28.668 73.0803
lradius 21.0566
lwrist -33.9086
lhand -11.4754 29.1843
lfingers 7.12502
lthumb 14.5625 58.6532
rfemur -8.83297 3.89397 19.452
rtibia 25.389
rfoot -16.904 -11.0427
rtoes -8.62017
lfemur -2.92977 -2.90887 -13.7477
ltibia 15.8179
lfoot -14.1058 11.9688
ltoes 22.9357
385
root 12.5741 17.7675 -13.5294 1.15014 -23.2307 3.16885
lowerback -1.72131 -0.588003 -4.60912
upperback 1.14734 -0.664116 0.0794274
thorax 2.20071 -0.401959 2.64169
lowerneck -13.0145 -0.581685 -1.83468
upperneck 25.5794 0.40382 -3.36242
head 10.3293 -0.435178 -0.837943
rclavicle -2.16551e-014 -1.98785e-015
rhumerus -34.8588 -15.2698 -75.1203
rradius 32.0819
rwrist 15.8268
rhand -24.0153 23.3006
rfingers 7.12502
rthumb 2.46259 -6.66496
lclavicle -2.16551e-014 -1.98785e-015
lhumerus -39.3545 28.8542 72.7673
lradius 21.1275
lwrist -33.5077
lhand -11.14 29.9696
lfingers 7.12502
lthumb 14.8856 59.4148
rfemur -8.9151 3.78693 19.1342
rtibia 25.5297
rfoot -17.0061 -11.0661
rtoes -8.15745
lfemur -2.66521 -3.42684 -14.0998
ltibia 15.3025
lfoot -14.1598 12.2981
ltoes 24.411
386
root 12.5978 17.7637 -13.5138 1.21893 -23.2212 3.33615
lowerback -1.94308 -0.661223 -4.78746
upperback 1.05705 -0.74592 0.0221008
thorax 2.24091 -0.444266 2.6778
lowerneck -12.9898 -0.608915 -2.08357
upperneck 25.5613 0.370407 -3.16266
head 10.3176 -0.450951 -0.728625
rclavicle 1.93691e-014 3.18055e-015
rhumerus -34.8735 -14.8586 -75.2708
rradius 32.1737
rwrist 16.0049
rhand -24.2694 22.8887
rfingers 7.12502
rthumb 2.21715 -7.07951
lclavicle 1.93691e-014 3.18055e-015
lhumerus -39.9977 29.5401 72.1166
lradius 21.2099
lwrist -33.8278
lhand -10.9064 29.8002
lfingers 7.12502
lthumb 15.1106 59.2286
rfemur -9.04287 4.02507 18.8401
rtibia 25.5269
rfoot -17.0193 -11.1887
rtoes -7.74147
lfemur -2.58219 -3.53769 -14.4546
ltibia 14.9368
lfoot -13.8981 12.7416
ltoes 23.1607
387
root 12.6196 17.7615 -13.5076 1.29252 -23.1206 3.25335
lowerback -1.92691 -0.618029 -4.72262
upperback 1.02419 -0.690457 -0.0547362
thorax 2.19136 -0.413336 2.56481
lowerneck -13.149 -0.832044 -2.40511
upperneck 25.5842 0.0349816 -2.7638
head 10.355 -0.58996 -0.575831
rclavicle -9.15652e-015 8.05078e-015
rhumerus -34.9306 -14.9865 -75.3775
rradius 32.2421
rwrist 16.0466
rhand -23.9786 23.2431
rfingers 7.12502
rthumb 2.49804 -6.72203
lclavicle -9.15652e-015 8.05078e-015
lhumerus -40.4605 30.3499 71.3431
lradius 21.2858
lwrist -34.3465
lhand -10.9745 29.6151
lfingers 7.12502
lthumb 15.045 59.0484
rfemur -9.03865 4.71219 18.8749
rtibia 25.5144
rfoot -17.0173 -11.8767
rtoes -7.66516
lfemur -2.46834 -3.62838 -14.501
ltibia 14.5811
lfoot -13.4579 13.0469
ltoes 20.5368
388
root 12.6439 17.7753 -13.5084 1.25533 -22.6451 3.17596
lowerback -1.68499 -0.653781 -4.64587
upperback 1.03928 -0.750548 -0.200528
thorax 2.07233 -0.438845 2.37156
lowerneck -13.3986 -1.09921 -2.50222
upperneck 25.627 -0.397709 -2.42218
head 10.418 -0.758678 -0.495056
rclavicle 4.22262e-014 -5.41688e-015
rhumerus -34.9589 -15.3044 -75.6143
rradius 32.3981
rwrist 16.1317
rhand -23.507 22.1883
rfingers 7.12502
rthumb 2.95348 -7.77102
lclavicle 4.22262e-014 -5.41688e-015
lhumerus -40.4465 29.9451 71.274
lradius 21.5191
lwrist -33.7845
lhand -11.2012 29.7791
lfingers 7.12502
lthumb 14.8266 59.2287
rfemur -8.90472 4.97105 18.9405
rtibia 25.5665
rfoot -17.1328 -12.5236
rtoes -7.49322
lfemur -2.27684 -4.36176 -14.4284
ltibia 14.1661
lfoot -13.5653 12.9272
ltoes 21.2901
